<?xml version="1.0" encoding="UTF-8" standalone="no"?>
<!-- Created with Inkscape (http://www.inkscape.org/) -->

<svg
   xmlns:dc="http://purl.org/dc/elements/1.1/"
   xmlns:cc="http://creativecommons.org/ns#"
   xmlns:rdf="http://www.w3.org/1999/02/22-rdf-syntax-ns#"
   xmlns:svg="http://www.w3.org/2000/svg"
   xmlns="http://www.w3.org/2000/svg"
   xmlns:xlink="http://www.w3.org/1999/xlink"
   xmlns:sodipodi="http://sodipodi.sourceforge.net/DTD/sodipodi-0.dtd"
   xmlns:inkscape="http://www.inkscape.org/namespaces/inkscape"
   id="svg1"
   sodipodi:version="0.32"
   inkscape:version="0.47 r22583"
   width="48"
   height="48"
   sodipodi:docname="father-day03.svg"
   version="1.1"
   inkscape:export-filename="father-day03.png"
   inkscape:export-xdpi="89.949997"
   inkscape:export-ydpi="89.949997">
  <defs
     id="defs3">
    <linearGradient
       id="linearGradient3669">
      <stop
         id="stop3671"
         offset="0"
         style="stop-color:#ffd73b;stop-opacity:1;" />
      <stop
         id="stop3673"
         offset="1"
         style="stop-color:#ee8400;stop-opacity:1;" />
    </linearGradient>
    <linearGradient
       id="linearGradient3669-3">
      <stop
         id="stop3671-5"
         offset="0"
         style="stop-color:#ffd73b;stop-opacity:1;" />
      <stop
         id="stop3673-1"
         offset="1"
         style="stop-color:#ee8400;stop-opacity:1;" />
    </linearGradient>
    <radialGradient
       inkscape:collect="always"
       xlink:href="#linearGradient3669-3"
       id="radialGradient2875"
       cx="21.573685"
       cy="38.740353"
       fx="21.573685"
       fy="38.740353"
       r="8"
       gradientTransform="matrix(1.4314939,0.07551982,-0.02835427,0.53738836,-8.2104583,18.243373)"
       gradientUnits="userSpaceOnUse" />
    <linearGradient
       inkscape:collect="always"
       xlink:href="#linearGradient3669"
       id="linearGradient2877"
       x1="18.862255"
       y1="38.995193"
       x2="17.822857"
       y2="45.838596"
       gradientUnits="userSpaceOnUse"
       gradientTransform="matrix(1.09375,0,0,1,-5.09375,-2.0547037)" />
    <linearGradient
       inkscape:collect="always"
       xlink:href="#linearGradient3669"
       id="linearGradient2881"
       x1="25"
       y1="37"
       x2="20"
       y2="37"
       gradientUnits="userSpaceOnUse"
       gradientTransform="translate(0,-0.721369)" />
    <radialGradient
       inkscape:collect="always"
       xlink:href="#linearGradient3669"
       id="radialGradient2885"
       cx="18.989319"
       cy="12.996178"
       fx="18.989319"
       fy="12.996178"
       r="12.5"
       gradientTransform="matrix(1.5876447,-0.19845539,0.07999993,0.63999999,-12.187985,7.72961)"
       gradientUnits="userSpaceOnUse" />
    <radialGradient
       inkscape:collect="always"
       xlink:href="#linearGradient3669"
       id="radialGradient2889"
       cx="24.973684"
       cy="8.3561401"
       fx="24.973684"
       fy="8.3561401"
       r="6.5"
       gradientTransform="matrix(1.1939631,-0.07840983,0.07287464,0.7705803,-5.4529248,5.194544)"
       gradientUnits="userSpaceOnUse" />
    <linearGradient
       inkscape:collect="always"
       xlink:href="#linearGradient3669"
       id="linearGradient2914"
       x1="13.219175"
       y1="18.491192"
       x2="26.513941"
       y2="36.43095"
       gradientUnits="userSpaceOnUse"
       gradientTransform="translate(0,-0.721369)" />
    <linearGradient
       inkscape:collect="always"
       xlink:href="#linearGradient3669"
       id="linearGradient2916"
       x1="23.228424"
       y1="34.263351"
       x2="18.231823"
       y2="22.566338"
       gradientUnits="userSpaceOnUse"
       gradientTransform="translate(0,-0.721369)" />
    <linearGradient
       inkscape:collect="always"
       xlink:href="#linearGradient3669"
       id="linearGradient2920"
       x1="35.163704"
       y1="21.397713"
       x2="29.892008"
       y2="18.82254"
       gradientUnits="userSpaceOnUse"
       gradientTransform="matrix(0.97420598,0.2256606,-0.2256606,0.97420598,7.6761239,-7.0117454)" />
    <linearGradient
       inkscape:collect="always"
       xlink:href="#linearGradient3669"
       id="linearGradient2924"
       x1="15.311976"
       y1="13.170694"
       x2="11.311543"
       y2="9.3077965"
       gradientUnits="userSpaceOnUse"
       gradientTransform="translate(1.0122792,-1.4954648)" />
    <filter
       inkscape:collect="always"
       id="filter3710"
       x="-0.097030671"
       width="1.1940613"
       y="-0.13902079"
       height="1.2780416">
      <feGaussianBlur
         inkscape:collect="always"
         stdDeviation="0.23824639"
         id="feGaussianBlur3712" />
    </filter>
    <filter
       inkscape:collect="always"
       id="filter3714"
       x="-0.086424386"
       width="1.1728488"
       y="-0.13326687"
       height="1.2665337">
      <feGaussianBlur
         inkscape:collect="always"
         stdDeviation="0.23824639"
         id="feGaussianBlur3716" />
    </filter>
    <filter
       inkscape:collect="always"
       id="filter3732"
       x="-0.40100605"
       width="1.8020121"
       y="-0.13175916"
       height="1.2635183">
      <feGaussianBlur
         inkscape:collect="always"
         stdDeviation="0.45766636"
         id="feGaussianBlur3734" />
    </filter>
    <filter
       inkscape:collect="always"
       id="filter3744"
       x="-0.14775683"
       width="1.2955137"
       y="-0.19627591"
       height="1.3925518">
      <feGaussianBlur
         inkscape:collect="always"
         stdDeviation="0.32627358"
         id="feGaussianBlur3746" />
    </filter>
    <filter
       inkscape:collect="always"
       id="filter3764"
       x="-0.33808542"
       width="1.6761708"
       y="-0.52471345"
       height="2.0494269">
      <feGaussianBlur
         inkscape:collect="always"
         stdDeviation="0.24687012"
         id="feGaussianBlur3766" />
    </filter>
    <filter
       inkscape:collect="always"
       id="filter3768"
       x="-0.28442679"
       width="1.5688536"
       y="-0.41580464"
       height="1.8316093">
      <feGaussianBlur
         inkscape:collect="always"
         stdDeviation="0.24687012"
         id="feGaussianBlur3770" />
    </filter>
    <filter
       inkscape:collect="always"
       id="filter3776"
       x="-0.08326609"
       width="1.1665322"
       y="-0.10847894"
       height="1.2169579">
      <feGaussianBlur
         inkscape:collect="always"
         stdDeviation="0.16956108"
         id="feGaussianBlur3778" />
    </filter>
    <filter
       inkscape:collect="always"
       id="filter3638"
       x="-0.047980677"
       width="1.0959614"
       y="-0.21317997"
       height="1.4263599">
      <feGaussianBlur
         inkscape:collect="always"
         stdDeviation="0.59091994"
         id="feGaussianBlur3640" />
    </filter>
  </defs>
  <sodipodi:namedview
     id="base"
     pagecolor="#ffffff"
     bordercolor="#666666"
     borderopacity="1.0"
     inkscape:pageopacity="0.0"
     inkscape:pageshadow="2"
     inkscape:zoom="1"
     inkscape:cx="8.2105263"
     inkscape:cy="24"
     inkscape:window-width="1153"
     inkscape:window-height="793"
     inkscape:window-x="498"
     inkscape:window-y="24"
     showgrid="false"
     inkscape:window-maximized="0"
     inkscape:current-layer="svg1"
     showguides="true"
     inkscape:guide-bbox="true"
     inkscape:snap-global="true">
    <inkscape:grid
       type="xygrid"
       id="grid2861" />
  </sodipodi:namedview>
  <metadata
     id="metadata4">
    <rdf:RDF>
      <cc:Work
         rdf:about="">
        <dc:format>image/svg+xml</dc:format>
        <dc:type
           rdf:resource="http://purl.org/dc/dcmitype/StillImage" />
        <dc:title />
      </cc:Work>
    </rdf:RDF>
  </metadata>
  <path
     sodipodi:type="arc"
     style="fill:#000000;fill-opacity:0.76862744999999999;fill-rule:evenodd;stroke:none;filter:url(#filter3638)"
     id="path3780"
     sodipodi:cx="23.115789"
     sodipodi:cy="40.463158"
     sodipodi:rx="14.778948"
     sodipodi:ry="3.3263159"
     d="m 37.894737,40.463158 a 14.778948,3.3263159 0 1 1 -29.5578954,0 14.778948,3.3263159 0 1 1 29.5578954,0 z"
     transform="matrix(0.62108264,0,0,0.92429351,7.9589741,2.179114)" />
  <path
     style="fill:url(#linearGradient2877);fill-opacity:1;fill-rule:evenodd;stroke:none"
     d="m 31,39.611964 c 0,1.472759 -3.917508,2.666667 -8.75,2.666667 -4.832492,0 -8.75,-1.193908 -8.75,-2.666667 0,-0.400257 0.855253,-1.529479 1.373684,-1.870175 1.389151,-0.912907 3.857169,-0.796492 7.376316,-0.796492 4.058931,0 7.303944,0.168587 8.292749,1.310917 C 30.731197,38.473922 31,39.376212 31,39.611964 z"
     id="path2872"
     sodipodi:nodetypes="csscscc" />
  <path
     sodipodi:type="arc"
     style="fill:url(#radialGradient2875);fill-opacity:1;fill-rule:evenodd;stroke:none"
     id="path2870"
     sodipodi:cx="25"
     sodipodi:cy="41.666668"
     sodipodi:rx="8"
     sodipodi:ry="2.6666667"
     d="m 33,41.666668 a 8,2.6666667 0 1 1 -16,0 8,2.6666667 0 1 1 16,0 z"
     transform="translate(-2.5,-3.0547037)" />
  <path
     style="color:#000000;fill:url(#linearGradient2881);fill-opacity:1;stroke:none;stroke-width:1px;marker:none;visibility:visible;display:inline;overflow:visible;enable-background:accumulate"
     d="m 20,32.278631 c 0.4941,2 0.834247,4 0,6 1.729894,1.264551 3.381983,0.973 5,0 -0.985395,-2 -0.687412,-4 0,-6 l -5,0 z"
     id="path2879"
     sodipodi:nodetypes="ccccc" />
  <path
     sodipodi:nodetypes="ccc"
     id="path2883"
     d="m 10,13.278631 c 0,27 24,29 25,0 -2,-5 -23,-5 -25,0 z"
     style="color:#000000;fill:url(#radialGradient2885);fill-opacity:1;stroke:none;stroke-width:1px;marker:none;visibility:visible;display:inline;overflow:visible;enable-background:accumulate" />
  <path
     style="color:#000000;fill:none;stroke:none;stroke-width:1px;marker:none;visibility:visible;display:inline;overflow:visible;enable-background:accumulate"
     d="m 10,13.278631 c 0,27 24,29 25,0 -4,5 -21,3 -25,0 z"
     id="path2866"
     sodipodi:nodetypes="ccc" />
  <path
     sodipodi:type="arc"
     style="fill:url(#radialGradient2889);fill-opacity:1;fill-rule:evenodd;stroke:none"
     id="path2887"
     sodipodi:cx="26.5"
     sodipodi:cy="10.5"
     sodipodi:rx="6.5"
     sodipodi:ry="2.5"
     d="m 33,10.5 a 6.5,2.5 0 1 1 -13,0 6.5,2.5 0 1 1 13,0 z"
     transform="matrix(0.88461538,0,0,1.2,-0.94230757,-3.321369)" />
  <path
     style="font-size:11.78351116px;font-style:normal;font-variant:normal;font-weight:bold;font-stretch:normal;text-align:start;line-height:125%;writing-mode:lr-tb;text-anchor:start;fill:url(#linearGradient2914);fill-opacity:1;stroke:none;font-family:DejaVu Serif;-inkscape-font-specification:Bitstream Vera Sans Bold"
     id="path2896"
     d="m 15.059546,27.444989 0.19996,-2.253714 1.432389,0.321389 0,-4.866325 -1.908482,0.437149 0.357275,-2.524581 2.276716,-0.789084 2.705594,0.927249 -0.06345,7.938834 1.464087,0.702271 0.07183,2.297729"
     sodipodi:nodetypes="ccccccccccc" />
  <path
     d="m 15.616781,26.840202 0,-0.696194 1.611027,0.559573 0,-6.95043 -1.789391,0.437149 0,-0.857297 2.157625,-0.550901 1.812406,0.62952 0,8.049381 1.61678,0.561571 0,0.696194 -5.408447,-1.878566"
     style="font-size:11.78351116px;font-style:normal;font-variant:normal;font-weight:bold;font-stretch:normal;text-align:start;line-height:125%;writing-mode:lr-tb;text-anchor:start;fill:url(#linearGradient2916);fill-opacity:0.70535715;stroke:none;font-family:DejaVu Serif;-inkscape-font-specification:Bitstream Vera Sans Bold"
     id="path2900" />
  <path
     style="color:#000000;fill:#ffffff;fill-opacity:0.60714285;stroke:none;stroke-width:1px;marker:none;visibility:visible;display:inline;overflow:visible;filter:url(#filter3714);enable-background:accumulate"
     d="m 32.8693,11.312948 c 0.876903,3.473386 -3.325516,3.076814 -5.418671,4.287299 0.162289,0.04771 9.95247,-0.381052 5.418671,-4.287299 z"
     id="path2928"
     sodipodi:nodetypes="ccc" />
  <path
     style="color:#000000;fill:url(#linearGradient2920);fill-opacity:1;stroke:none;stroke-width:1px;marker:none;visibility:visible;display:inline;overflow:visible;enable-background:accumulate"
     d="M 32.356215,14.419721 C 39.9563,19.652251 34.611131,24.189999 30.725747,27 c 0.10753,0.614559 0.128864,1.302538 1.16446,0.51422 4.963954,-1.723134 12.18972,-8.288827 2.764791,-13.692567 -0.06931,-1.162168 -3.088885,-0.597496 -2.298783,0.598068 z"
     id="path2918"
     sodipodi:nodetypes="ccccc" />
  <path
     style="color:#000000;fill:#ffffff;fill-opacity:0.60714285;stroke:none;stroke-width:1px;marker:none;visibility:visible;display:inline;overflow:visible;filter:url(#filter3710);enable-background:accumulate"
     d="m 16.613288,10.12203 c -2.98223,1.104083 -5.846745,2.227785 -4.168209,4.108663 -0.102166,0.102166 -5.8291719,-1.614057 4.168209,-4.108663 z"
     id="path2926"
     sodipodi:nodetypes="ccc" />
  <path
     style="color:#000000;fill:url(#linearGradient2924);stroke:none;stroke-width:1px;marker:none;visibility:visible;display:inline;overflow:visible;enable-background:accumulate"
     d="M 13.635995,11.491585 12.385533,11.13431 c -0.05421,-1.611419 0.73981,-1.8917126 2.381834,-1.667283 l 1.250462,0.535913 c 0.532712,0.576194 0.46405,2.318542 -2.381834,1.488645 z"
     id="path2922"
     sodipodi:nodetypes="ccccc" />
  <path
     style="color:#000000;fill:#ffffff;fill-opacity:1;stroke:none;stroke-width:1px;marker:none;visibility:visible;display:inline;overflow:visible;filter:url(#filter3744);enable-background:accumulate"
     d="m 22.389234,6.4897345 c -3.1054,0.4150202 -4.792477,1.5960536 -5.061396,3.9895705 0,0 -1.905467,-3.5727496 5.061396,-3.9895705 z"
     id="path3718"
     sodipodi:nodetypes="ccc" />
  <path
     style="color:#000000;fill:#ffffff;fill-opacity:0.85267861;stroke:none;stroke-width:1px;marker:none;visibility:visible;display:inline;overflow:visible;filter:url(#filter3764);enable-background:accumulate"
     d="m 34.2984,13.456597 c -1.340601,0.161065 -1.579501,0.597555 -1.667283,1.071825 0,0 -0.655004,-1.4291 1.667283,-1.071825 z"
     id="path3720"
     sodipodi:nodetypes="ccc" />
  <path
     style="color:#000000;fill:#ffffff;fill-opacity:0.85267861;stroke:none;stroke-width:1px;marker:none;visibility:visible;display:inline;overflow:visible;filter:url(#filter3768);enable-background:accumulate"
     d="m 12.921446,11.015218 c 0.226153,-0.656408 0.24771,-1.449214 1.845921,-1.190917 -0.07075,-0.303329 -2.906455,-0.6195859 -1.845921,1.190917 z"
     id="path3722"
     sodipodi:nodetypes="ccc" />
  <path
     style="color:#000000;fill:#ffffff;fill-opacity:0.67857139;stroke:none;stroke-width:1px;marker:none;visibility:visible;display:inline;overflow:visible;filter:url(#filter3732);enable-background:accumulate"
     d="M 11.373254,22.269381 C 10.76791,19.490575 10.43058,16.71177 10.301429,13.932964 c 0.737436,0.867265 1.684884,1.314505 2.739109,1.548192 -1.346258,1.823577 -1.746548,4.172691 -1.667284,6.788225 z"
     id="path3724"
     sodipodi:nodetypes="cccc" />
  <path
     style="color:#000000;fill:#ffffff;fill-opacity:0.70535715;stroke:none;stroke-width:1px;marker:none;visibility:visible;display:inline;overflow:visible;filter:url(#filter3776);enable-background:accumulate"
     d="m 15.898738,39.954494 c -2.04516,-1.679419 1.815543,-2.920905 3.691841,-3.751388 0,0 -7.800504,1.607737 -3.691841,3.751388 z"
     id="path3726"
     sodipodi:nodetypes="ccc" />
</svg>
