<?xml version="1.0" encoding="UTF-8" standalone="no"?>
<!-- Generator: Adobe Illustrator 12.0.0, SVG Export Plug-In . SVG Version: 6.00 Build 51448)  -->
<svg
   xmlns:dc="http://purl.org/dc/elements/1.1/"
   xmlns:cc="http://web.resource.org/cc/"
   xmlns:rdf="http://www.w3.org/1999/02/22-rdf-syntax-ns#"
   xmlns:svg="http://www.w3.org/2000/svg"
   xmlns="http://www.w3.org/2000/svg"
   xmlns:xlink="http://www.w3.org/1999/xlink"
   xmlns:sodipodi="http://sodipodi.sourceforge.net/DTD/sodipodi-0.dtd"
   xmlns:inkscape="http://www.inkscape.org/namespaces/inkscape"
   version="1.1"
   width="309.85"
   height="398.659"
   viewBox="0 0 309.85 398.659"
   overflow="visible"
   enable-background="new 0 0 309.85 398.659"
   xml:space="preserve"
   id="svg3153"
   sodipodi:version="0.32"
   inkscape:version="0.44.1"
   sodipodi:docname="stylized house.svg"
   sodipodi:docbase="/Users/paolo/Desktop/progetti open clip"><metadata
   id="metadata3511"><rdf:RDF><cc:Work
       rdf:about=""><dc:format>image/svg+xml</dc:format><dc:type
         rdf:resource="http://purl.org/dc/dcmitype/StillImage" /><cc:license
         rdf:resource="http://web.resource.org/cc/PublicDomain" /><dc:title>house</dc:title></cc:Work><cc:License
       rdf:about="http://web.resource.org/cc/PublicDomain"><cc:permits
         rdf:resource="http://web.resource.org/cc/Reproduction" /><cc:permits
         rdf:resource="http://web.resource.org/cc/Distribution" /><cc:permits
         rdf:resource="http://web.resource.org/cc/DerivativeWorks" /></cc:License></rdf:RDF></metadata><defs
   id="defs3509">
	
	
	
	
	
	
	
	
	
	
	
	
	
	
	
</defs><sodipodi:namedview
   inkscape:window-height="913"
   inkscape:window-width="1280"
   inkscape:pageshadow="2"
   inkscape:pageopacity="0.0"
   guidetolerance="10.0"
   gridtolerance="10.0"
   objecttolerance="10.0"
   borderopacity="1.0"
   bordercolor="#666666"
   pagecolor="#ffffff"
   id="base"
   inkscape:zoom="0.94817878"
   inkscape:cx="171.79946"
   inkscape:cy="250.48019"
   inkscape:window-x="9"
   inkscape:window-y="22"
   inkscape:current-layer="svg3153" />
<g
   id="Background">
</g>
<g
   id="Guides">
</g>
<g
   id="g4576"
   transform="matrix(0.879467,0,0,0.879467,18.67351,24.02548)"><path
     clip-rule="evenodd"
     d="M 139.092,25.659 C 68.092,74.159 15.092,145.659 15.092,145.659 L 215.092,152.159 C 215.092,152.159 156.299,13.905 139.092,25.659 z "
     id="path3158"
     style="fill:#fff3e3;fill-rule:evenodd" /><path
     clip-rule="evenodd"
     d="M 295.592,166.659 C 327.253,174.27 150.092,13.659 150.092,13.659 L 129.592,37.159 C 129.592,37.159 191.031,73.654 178.092,83.159 C 50.959,176.551 268.531,160.154 295.592,166.659 z "
     id="path3160"
     style="fill:#fff8ee;fill-rule:evenodd" /><path
     clip-rule="evenodd"
     d="M 19.592,144.659 C 19.592,9.659 26.592,388.659 26.592,388.659 L 297.592,389.659 C 297.592,389.659 19.139,343.285 130.592,231.659 C 242.044,120.032 19.592,167.219 19.592,144.659 z "
     id="path3162"
     style="fill:#fff8ee;fill-rule:evenodd" /><path
     clip-rule="evenodd"
     d="M 34.592,210.659 C 24.374,122.411 21.592,391.659 21.592,391.659 L 185.592,390.659 C 185.592,390.659 45.592,305.659 34.592,210.659 z "
     id="path3164"
     style="fill:#fff3e3;fill-rule:evenodd" /><g
     id="g3166">
		<g
   id="g3168">
			<ellipse
   cx="20.591999"
   cy="270.60101"
   rx="11"
   ry="115.058"
   id="ellipse3170"
   sodipodi:cx="20.591999"
   sodipodi:cy="270.60101"
   sodipodi:rx="11"
   sodipodi:ry="115.058"
   style="fill:#ffe2b7" />
			<path
   id="path3172"
   style="fill:#ffe2b7"
   d="" />
		</g>
		<g
   id="g3174">
			<g
   id="g3176">
				<g
   id="g3178">
					<path
   d="M 9.592,270.601 C 7.672,270.601 7.284,218.864 17.08,153.578 C 17.255,153.415 17.87,152.924 18.068,152.792 C 18.808,152.411 18.902,152.374 18.996,152.336 C 19.915,152.103 20.009,152.09 20.104,152.077 C 21.173,152.09 21.27,152.09 21.362,152.115 C 22.283,152.362 22.374,152.41 23.114,152.791 C 23.313,152.923 23.927,153.415 24.102,153.578 C 25.163,154.907 25.815,156.074 26.34,157.236 C 32.521,197 34.253,298.221 26.014,381.103 C 25.471,382.683 24.741,384.397 23.812,385.963 C 23.499,386.353 23.129,386.743 22.929,386.925 C 22.566,387.2 22.472,387.261 22.378,387.322 C 21.88,387.573 21.785,387.61 21.691,387.646 C 21.082,387.795 20.988,387.819 20.893,387.819 C 20.191,387.817 20.097,387.792 20.002,387.778 C 19.396,387.603 19.302,387.564 19.208,387.526 C 18.609,387.179 18.159,386.815 17.985,386.651 C 17.127,385.547 16.564,384.518 16.104,383.481 C 9.128,320.58 8.784,270.601 9.592,270.601 C 10.4,270.601 12.227,320.417 20.109,381.944 C 20.402,382.563 20.712,383.131 20.947,383.478 C 21.123,383.639 21.043,383.575 20.841,383.491 C 20.936,383.528 21.03,383.564 20.612,383.463 C 20.707,383.474 20.801,383.5 20.289,383.498 C 20.194,383.498 20.478,383.471 20.059,383.596 C 20.152,383.557 20.246,383.519 19.936,383.696 C 20.029,383.633 20.122,383.57 19.946,383.721 C 20.142,383.535 20.139,383.53 20.173,383.505 C 20.804,382.389 21.266,381.234 21.712,379.868 C 28.292,298.117 25.621,197.604 19.813,159.743 C 19.585,159.25 19.365,158.82 19.333,158.697 C 19.158,158.534 19.403,158.727 19.204,158.595 C 19.756,158.901 19.665,158.851 20.392,159.047 C 20.484,159.071 20.203,159.022 21.082,159.009 C 20.987,159.021 20.893,159.034 21.623,158.825 C 21.529,158.863 21.435,158.9 21.987,158.594 C 21.788,158.725 22.033,158.533 21.858,158.696 C 14.232,219.229 11.512,270.601 9.592,270.601 z "
   id="path3180" />
				</g>
			</g>
		</g>
	</g><g
     id="g3182">
		<g
   id="g3184">
			
				<ellipse
   transform="matrix(-0.9976,-6.98e-2,6.98e-2,-0.9976,298.8768,322.8707)"
   cx="155.076"
   cy="156.216"
   rx="143.49899"
   ry="9.5"
   id="ellipse3186"
   sodipodi:cx="155.076"
   sodipodi:cy="156.216"
   sodipodi:rx="143.49899"
   sodipodi:ry="9.5"
   style="fill:#ffe2b7" />
			<path
   id="path3188"
   style="fill:#ffe2b7"
   d="" />
		</g>
		<g
   id="g3190">
			<g
   id="g3192">
				<g
   id="g3194">
					<path
   d="M 11.927,146.205 C 11.86,146.187 11.814,146.088 11.79,145.91 C 11.835,145.766 11.861,145.671 11.896,145.562 C 12.051,145.335 12.259,145.104 12.479,144.897 C 21.686,141.283 82.626,138.987 155.982,143.248 C 182.086,144.764 237.222,150.786 300.401,163.772 C 300.845,164.478 300.885,164.563 300.926,164.647 C 301.22,165.691 301.245,165.774 301.239,165.857 C 301.152,167.095 301.114,167.174 301.093,167.254 C 300.625,168.244 300.572,168.321 300.52,168.399 C 299.852,169.122 299.276,169.555 299.068,169.687 C 172.996,169.355 21.071,151.647 11.977,146.79 C 11.931,146.673 11.902,146.583 11.874,146.493 C 11.877,146.296 11.897,146.209 11.927,146.205 C 11.956,146.202 11.996,146.281 12.036,146.414 C 12.089,146.493 12.142,146.571 12.178,146.622 C 21.737,148.986 173.255,164.467 295.768,164.601 C 295.974,164.467 295.793,164.612 295.489,165.004 C 295.541,164.926 295.593,164.848 295.229,165.682 C 295.25,165.601 295.287,165.522 295.211,166.597 C 295.205,166.68 295.19,166.432 295.465,167.311 C 295.423,167.227 295.382,167.143 295.745,167.68 C 236.412,157.401 181.478,151.739 155.495,150.23 C 82.388,145.985 22.142,145.616 12.987,145.677 C 12.707,145.792 12.529,145.864 12.397,145.898 C 12.31,145.973 12.224,145.988 12.191,146.016 C 12.054,146.134 11.994,146.223 11.927,146.205 z "
   id="path3196" />
				</g>
			</g>
		</g>
	</g><g
     id="g3198">
		<g
   id="g3200">
			<defs
   id="defs3202">
				<ellipse
   id="XMLID_1_"
   cx="300.09201"
   cy="276.659"
   rx="9.5"
   ry="112"
   sodipodi:cx="300.09201"
   sodipodi:cy="276.659"
   sodipodi:rx="9.5"
   sodipodi:ry="112" />
			</defs>
			<clipPath
   id="XMLID_7_">
				<use
   xlink:href="#XMLID_1_"
   id="use3206"
   x="0"
   y="0"
   width="309.85001"
   height="398.659" />
			</clipPath>
			<g
   clip-path="url(#XMLID_7_)"
   id="g3208">
				<rect
   x="290.59201"
   y="164.659"
   width="19"
   height="18.667"
   id="rect3210"
   style="fill:#ffe2b7" />
				<rect
   x="290.59201"
   y="183.325"
   width="19"
   height="18.667"
   id="rect3212"
   style="fill:#ffdfb1" />
				<rect
   x="290.59201"
   y="201.992"
   width="19"
   height="18.667"
   id="rect3214"
   style="fill:#ffddac" />
				<rect
   x="290.59201"
   y="220.659"
   width="19"
   height="18.667"
   id="rect3216"
   style="fill:#ffdba6" />
				<rect
   x="290.59201"
   y="239.325"
   width="19"
   height="18.667"
   id="rect3218"
   style="fill:#ffd8a0" />
				<rect
   x="290.59201"
   y="257.992"
   width="19"
   height="18.667"
   id="rect3220"
   style="fill:#ffd69a" />
				<rect
   x="290.59201"
   y="276.659"
   width="19"
   height="18.667"
   id="rect3222"
   style="fill:#ffd495" />
				<rect
   x="290.59201"
   y="295.32501"
   width="19"
   height="18.667"
   id="rect3224"
   style="fill:#ffd18f" />
				<rect
   x="290.59201"
   y="313.992"
   width="19"
   height="18.667"
   id="rect3226"
   style="fill:#ffd089" />
				<rect
   x="290.59201"
   y="332.659"
   width="19"
   height="18.667"
   id="rect3228"
   style="fill:#fecd84" />
				<rect
   x="290.59201"
   y="351.32501"
   width="19"
   height="18.667"
   id="rect3230"
   style="fill:#fecb7f" />
				<rect
   x="290.59201"
   y="369.992"
   width="19"
   height="18.667"
   id="rect3232"
   style="fill:#fec979" />
			</g>
		</g>
		<g
   id="g3234">
			<g
   id="g3236">
				<g
   id="g3238">
					<path
   d="M 290.592,276.659 C 288.667,276.659 288.118,226.242 297.255,162.19 C 297.336,162.13 297.41,162.061 297.497,162.009 C 298.255,161.561 298.342,161.534 298.423,161.498 C 299.442,161.217 299.523,161.205 300.579,161.193 C 300.661,161.205 300.746,161.205 301.761,161.498 C 301.846,161.523 301.923,161.571 302.005,161.607 C 302.861,162.139 303.432,162.649 303.581,162.806 C 304.765,164.571 305.36,165.903 305.774,167.046 C 310.984,206.813 312.193,307.273 303.425,388.502 C 303.214,388.844 302.847,389.357 302.398,389.854 C 302.06,390.141 301.979,390.201 301.897,390.26 C 301.389,390.547 301.307,390.583 301.226,390.618 C 300.56,390.797 300.479,390.82 300.396,390.82 C 299.707,390.819 299.625,390.794 299.544,390.781 C 298.88,390.577 298.799,390.54 298.718,390.503 C 298.121,390.121 297.708,389.748 297.559,389.589 C 296.613,388.139 296.084,386.932 295.672,385.759 C 289.967,324.878 289.786,276.659 290.592,276.659 C 291.397,276.659 293.059,324.77 299.763,384.508 C 300.097,385.391 300.462,386.178 300.682,386.573 C 300.833,386.728 300.738,386.647 300.489,386.525 C 300.571,386.561 300.652,386.596 300.151,386.465 C 300.233,386.476 300.315,386.487 299.789,386.499 C 299.871,386.486 299.953,386.473 299.45,386.627 C 299.531,386.59 299.612,386.553 299.266,386.767 C 299.346,386.706 299.427,386.645 299.249,386.811 C 299.345,386.717 299.448,386.58 299.653,386.235 C 306.269,307.17 304.08,207.296 299.159,169.323 C 298.827,168.41 298.529,167.748 298.546,167.668 C 298.396,167.511 298.649,167.729 299.158,168.002 C 299.076,167.965 298.828,167.868 298.914,167.893 C 299.772,168.137 299.687,168.137 299.605,168.125 C 300.497,168.137 300.416,168.149 301.27,167.893 C 301.189,167.929 301.102,167.956 301.709,167.6 C 301.796,167.549 301.548,167.721 301.467,167.781 C 295.086,226.485 292.517,276.659 290.592,276.659 z "
   id="path3240" />
				</g>
			</g>
		</g>
	</g><g
     id="g3242">
		<g
   id="g3244">
			
				<ellipse
   transform="matrix(-0.7071,0.7071,-0.7071,-0.7071,458.1403,-2.388)"
   cx="229.565"
   cy="93.690002"
   rx="13.083"
   ry="99.349998"
   id="ellipse3246"
   sodipodi:cx="229.565"
   sodipodi:cy="93.690002"
   sodipodi:rx="13.083"
   sodipodi:ry="99.349998"
   style="fill:#ffe2b7" />
			<path
   id="path3248"
   style="fill:#ffe2b7"
   d="" />
		</g>
		<g
   id="g3250">
			<g
   id="g3252">
				<g
   id="g3254">
					<path
   d="M 220.313,102.941 C 218.98,104.274 187.966,73.569 155.678,28.349 C 155.41,27.228 155.269,26.331 155.202,25.303 C 155.228,24.659 155.317,23.96 155.37,23.687 C 155.575,22.989 155.919,22.213 156.415,21.45 C 156.487,21.363 156.559,21.276 156.631,21.188 C 157.15,20.685 157.237,20.613 157.324,20.541 C 158.087,20.045 158.863,19.701 159.561,19.496 C 160.414,19.362 161.216,19.329 161.653,19.342 C 164.356,19.843 166.322,20.525 168.176,21.33 C 196.423,41.023 249.365,90.829 291.624,140.586 C 295.725,146.632 299.502,152.973 302.404,160.112 C 302.561,161.035 302.624,161.89 302.59,162.785 C 302.504,163.302 302.357,163.845 302.27,164.086 C 302.001,164.634 301.65,165.182 301.487,165.343 C 301.054,165.771 300.505,166.118 300.302,166.227 C 299.713,166.463 299.172,166.604 298.658,166.685 C 297.767,166.706 296.917,166.628 296.005,166.459 C 288.718,163.301 282.172,159.812 276.775,155.318 C 242.622,126.881 219.819,103.435 220.313,102.941 C 220.807,102.447 244.447,124.872 279.004,152.25 C 284.35,156.485 290.72,159.69 297.043,162.298 C 297.442,162.358 297.918,162.391 298.356,162.364 C 298.345,162.347 298.299,162.358 298.194,162.425 C 298.394,162.312 298.044,162.654 298.145,162.54 C 298.296,162.368 298.177,162.516 298.131,162.662 C 298.213,162.419 298.196,162.466 298.208,162.48 C 298.221,162.046 298.174,161.575 298.102,161.187 C 295.462,155.124 291.769,149.204 287.693,143.444 C 244.998,95.048 192.104,46.358 165.337,27.71 C 163.819,27.049 162.312,26.531 161.41,26.335 C 160.973,26.322 160.904,26.343 160.898,26.366 C 161.143,26.319 161.482,26.167 161.825,25.902 C 161.738,25.974 161.651,26.046 161.994,25.687 C 161.922,25.774 161.85,25.861 161.778,25.949 C 162.042,25.606 162.194,25.267 162.241,25.022 C 162.188,25.295 162.209,25.147 162.196,25.058 C 162.215,25.477 162.3,26.012 162.367,26.303 C 193.135,69.077 221.647,101.607 220.313,102.941 z "
   id="path3256" />
				</g>
			</g>
		</g>
	</g><g
     id="g3258">
		<g
   id="g3260">
			<ellipse
   cx="157.092"
   cy="390.159"
   rx="133.5"
   ry="8.5"
   id="ellipse3262"
   sodipodi:cx="157.092"
   sodipodi:cy="390.159"
   sodipodi:rx="133.5"
   sodipodi:ry="8.5"
   style="fill:#ffe2b7" />
			<path
   id="path3264"
   style="fill:#ffe2b7"
   d="" />
		</g>
		<g
   id="g3266">
			<g
   id="g3268">
				<g
   id="g3270">
					<path
   d="M 23.592,390.159 C 23.525,390.146 23.473,390.059 23.436,389.901 C 23.47,389.76 23.487,389.671 23.511,389.569 C 23.642,389.348 23.821,389.12 24.011,388.918 C 32.276,384.939 88.696,378.934 157.092,378.16 C 181.446,377.884 233.11,379.838 293.154,388.375 C 293.546,389.434 293.575,389.505 293.574,389.58 C 293.574,390.812 293.544,390.885 293.53,390.958 C 293.108,392.015 293.065,392.087 293.021,392.16 C 292.406,392.901 291.869,393.351 291.686,393.481 C 173.231,401.038 29.213,393.981 23.562,390.423 C 23.549,390.244 23.563,390.164 23.592,390.159 C 23.621,390.153 23.664,390.221 23.711,390.333 C 29.818,391.356 173.23,396.156 288.121,388.575 C 288.303,388.443 288.114,388.61 287.816,389.033 C 287.859,388.96 287.902,388.887 287.567,389.799 C 287.581,389.726 287.61,389.653 287.609,390.739 C 287.609,390.814 287.579,390.593 287.943,391.505 C 232.76,386.493 181.325,384.885 157.091,385.159 C 88.936,385.931 32.955,389.236 24.55,389.662 C 24.297,389.777 24.137,389.845 24.019,389.874 C 23.941,389.944 23.871,390.001 23.834,389.978 C 23.74,390.111 23.659,390.172 23.592,390.159 z "
   id="path3272" />
				</g>
			</g>
		</g>
	</g><g
     id="g3274">
		<g
   id="g3276">
			
				<ellipse
   transform="matrix(-0.9986,5.24e-2,-5.24e-2,-0.9986,289.9907,675.0062)"
   cx="136.155"
   cy="341.30099"
   rx="4.0009999"
   ry="39.495998"
   id="ellipse3278"
   sodipodi:cx="136.155"
   sodipodi:cy="341.30099"
   sodipodi:rx="4.0009999"
   sodipodi:ry="39.495998"
   style="fill:#ffe2b7" />
			<path
   id="path3280"
   style="fill:#ffe2b7"
   d="" />
		</g>
		<g
   id="g3282">
			<g
   id="g3284">
				<g
   id="g3286">
					<path
   d="M 132.159,341.51 C 131.066,341.567 129.673,323.881 131.918,301.113 C 132.1,300.869 132.329,300.618 132.397,300.551 C 132.702,300.308 133.102,300.081 133.172,300.05 C 133.672,299.901 133.707,299.895 134.228,299.863 C 134.263,299.865 134.297,299.868 134.332,299.87 C 134.884,299.986 135.305,300.17 135.372,300.207 C 135.934,300.638 136.18,300.903 136.379,301.162 C 137.388,303.279 137.953,305.165 138.394,307.012 C 140.702,323.143 142.269,354.478 140.012,380.68 C 139.929,380.829 139.78,381.066 139.492,381.418 C 139.43,381.476 139.214,381.655 138.935,381.821 C 138.901,381.835 138.868,381.849 138.833,381.863 C 138.508,381.958 138.474,381.967 138.439,381.969 C 138.101,381.986 138.066,381.979 137.734,381.918 C 137.662,381.894 137.374,381.767 137.307,381.729 C 136.915,381.424 136.724,381.216 136.631,381.096 C 135.671,379.063 135.146,377.223 134.731,375.379 C 132.39,356.168 131.734,341.533 132.159,341.51 C 132.584,341.487 134.025,356.025 136.971,374.903 C 137.415,376.616 137.948,378.279 138.549,379.544 C 138.646,379.661 138.667,379.672 138.51,379.559 C 138.577,379.595 138.429,379.53 138.502,379.552 C 138.239,379.496 138.274,379.503 138.005,379.516 C 137.97,379.517 138.073,379.503 137.816,379.585 C 137.849,379.57 137.882,379.555 137.916,379.54 C 137.776,379.608 137.688,379.677 137.749,379.617 C 137.671,379.7 137.705,379.65 137.783,379.499 C 138.965,354.539 136.882,323.547 134.525,307.908 C 134.108,306.198 133.614,304.581 133.062,303.401 C 133.07,303.422 133.104,303.469 133.431,303.708 C 133.364,303.671 133.646,303.792 134.052,303.862 C 134.017,303.86 133.983,303.857 133.948,303.855 C 134.401,303.835 134.366,303.841 134.799,303.705 C 134.729,303.736 134.996,303.585 135.176,303.43 C 135.108,303.496 135.209,303.388 135.273,303.293 C 133.64,323.881 133.252,341.453 132.159,341.51 z "
   id="path3288" />
				</g>
			</g>
		</g>
	</g><g
     id="g3290">
		<path
   clip-rule="evenodd"
   d="M 132.43,299.935 C 132.3,297.453 147.594,295.636 165.258,294.71 C 182.922,293.784 196.268,294.101 196.399,296.583 C 196.529,299.065 182.418,297.316 164.547,300.255 C 147.093,303.126 132.56,302.417 132.43,299.935 z "
   id="path3292"
   style="fill:#ffe2b7;fill-rule:evenodd" />
		<g
   id="g3294">
			<g
   id="g3296">
				<g
   id="g3298">
					<path
   d="M 132.43,299.935 C 132.349,299.931 132.272,299.848 132.228,299.65 C 132.236,299.531 132.265,299.398 132.289,299.293 C 132.414,299.049 132.568,298.829 132.775,298.602 C 134.158,297.579 136.966,296.356 140.849,295.516 C 146.703,294.248 154.952,293.31 164.092,292.77 C 169.871,292.428 181.987,292.326 196.351,294.089 C 196.729,294.305 197.011,294.503 197.295,294.745 C 197.482,294.941 197.669,295.177 197.717,295.25 C 197.89,295.557 198.019,295.884 198.042,295.96 C 198.11,296.302 198.129,296.68 198.082,297.085 C 198.064,297.156 197.935,297.541 197.904,297.607 C 197.712,297.937 197.491,298.21 197.436,298.268 C 196.997,298.63 196.74,298.784 196.608,298.852 C 170.708,300.821 140.475,302.939 133.388,301.205 C 133.057,301.007 132.787,300.8 132.606,300.612 C 132.541,300.523 132.481,300.43 132.438,300.347 C 132.407,300.251 132.385,300.154 132.377,300.072 C 132.387,299.981 132.406,299.939 132.43,299.935 C 132.454,299.932 132.484,299.967 132.516,300.028 C 132.559,300.099 132.601,300.15 132.646,300.197 C 132.712,300.263 132.771,300.31 132.831,300.355 C 133.027,300.471 133.279,300.59 133.616,300.719 C 140.537,301.166 170.363,298.009 194.992,295.813 C 195.122,295.742 195.117,295.737 194.91,295.914 C 194.964,295.855 194.846,296.005 194.743,296.202 C 194.772,296.134 194.689,296.379 194.705,296.307 C 194.663,296.56 194.674,296.786 194.722,296.976 C 194.698,296.901 194.766,297.081 194.869,297.246 C 194.818,297.174 194.895,297.272 194.964,297.335 C 194.91,297.29 194.825,297.236 194.817,297.234 C 181.986,296.145 170.01,296.428 164.301,296.765 C 155.3,297.297 147.15,297.77 141.289,298.297 C 137.466,298.641 134.721,299.217 133.382,299.47 C 133.159,299.56 132.982,299.638 132.878,299.662 C 132.794,299.729 132.745,299.748 132.697,299.759 C 132.595,299.865 132.511,299.94 132.43,299.935 z "
   id="path3300" />
				</g>
			</g>
		</g>
	</g><g
     id="g3302">
		<g
   id="g3304">
			
				<ellipse
   transform="matrix(-0.9986,5.24e-2,-5.24e-2,-0.9986,409.6085,668.9164)"
   cx="196.041"
   cy="339.82401"
   rx="2.6199999"
   ry="38.337002"
   id="ellipse3306"
   sodipodi:cx="196.041"
   sodipodi:cy="339.82401"
   sodipodi:rx="2.6199999"
   sodipodi:ry="38.337002"
   style="fill:#ffe2b7" />
			<path
   id="path3308"
   style="fill:#ffe2b7"
   d="" />
		</g>
		<g
   id="g3310">
			<g
   id="g3312">
				<g
   id="g3314">
					<path
   d="M 193.424,339.962 C 192.322,340.02 190.803,322.739 192.907,299.861 C 193.539,299.603 193.561,299.598 193.584,299.592 C 194.3,299.559 194.323,299.562 194.346,299.565 C 195.002,299.764 195.025,299.775 195.457,300.052 C 195.508,300.095 195.778,300.363 195.822,300.413 C 198.613,313.78 200.788,349.578 199.267,378.705 C 199.121,378.878 199.099,378.899 199.078,378.92 C 198.82,379.125 198.798,379.138 198.776,379.151 C 198.373,379.314 198.351,379.322 198.328,379.324 C 197.873,379.347 197.85,379.34 197.828,379.336 C 197.411,379.208 197.389,379.196 197.366,379.185 C 197.061,378.977 196.877,378.791 196.741,378.62 C 193.693,357.051 192.956,339.986 193.424,339.962 C 193.892,339.937 195.486,356.895 198.798,377.231 C 198.75,377.161 198.658,377.071 198.455,376.947 C 198.478,376.958 198.501,376.969 198.13,376.863 C 198.153,376.865 198.176,376.873 197.766,376.893 C 197.743,376.894 197.81,376.882 197.452,377.034 C 197.473,377.02 197.495,377.006 197.28,377.184 C 197.301,377.162 197.322,377.14 197.218,377.269 C 197.384,349.696 194.645,314.196 192.802,303.037 C 192.759,302.986 192.937,303.159 192.885,303.116 C 193.271,303.37 193.248,303.359 193.858,303.535 C 193.835,303.532 193.813,303.529 194.483,303.49 C 194.461,303.495 194.438,303.501 195.026,303.254 C 194.799,322.669 194.526,339.904 193.424,339.962 z "
   id="path3316" />
				</g>
			</g>
		</g>
	</g><g
     id="g3318">
		<g
   id="g3320">
			<g
   id="g3322">
				
					<ellipse
   transform="matrix(-0.9976,-6.98e-2,6.98e-2,-0.9976,92.0872,480.5497)"
   cx="54.435001"
   cy="238.66701"
   rx="4.0170002"
   ry="24.775999"
   id="ellipse3324"
   sodipodi:cx="54.435001"
   sodipodi:cy="238.66701"
   sodipodi:rx="4.0170002"
   sodipodi:ry="24.775999"
   style="fill:#ffe2b7" />
				<path
   id="path3326"
   style="fill:#ffe2b7"
   d="" />
			</g>
			<g
   id="g3328">
				<g
   id="g3330">
					<g
   id="g3332">
						<path
   d="M 50.428,238.386 C 49.376,238.312 49.633,227.712 53.043,214.192 C 53.303,213.763 53.613,213.327 53.99,212.899 C 54.189,212.714 54.429,212.523 54.9,212.238 C 54.968,212.206 55.298,212.079 55.37,212.056 C 55.711,211.982 56.093,211.951 56.442,211.97 C 56.511,211.98 56.885,212.064 56.952,212.084 C 57.561,212.37 57.828,212.557 58.074,212.771 C 58.365,213.086 58.657,213.491 58.841,213.8 C 59.621,215.868 60.09,218.181 60.397,220.764 C 60.654,230.976 59.37,246.616 56.308,260.388 C 55.889,261.442 55.379,262.503 54.66,263.597 C 54.439,263.842 54.231,264.037 53.989,264.225 C 53.779,264.357 53.556,264.466 53.281,264.561 C 53.042,264.61 52.777,264.63 52.707,264.628 C 52.464,264.604 52.206,264.545 52.14,264.522 C 51.724,264.323 51.523,264.181 51.339,264.019 C 51.098,263.749 50.866,263.417 50.709,263.14 C 49.942,260.8 49.59,258.635 49.381,256.473 C 49.351,245.911 50.046,238.36 50.428,238.386 C 50.809,238.412 50.832,245.936 51.458,256.255 C 51.764,258.291 52.197,260.28 52.812,261.927 C 52.914,262.089 52.978,262.173 53.083,262.276 C 53.079,262.261 53.074,262.246 52.867,262.148 C 52.934,262.167 52.812,262.139 52.708,262.135 C 52.778,262.133 52.652,262.14 52.55,262.167 C 52.497,262.191 52.485,262.202 52.473,262.213 C 52.539,262.157 52.614,262.078 52.653,262.028 C 53.067,261.324 53.438,260.451 53.763,259.511 C 56.095,246.213 56.919,230.911 56.506,221.173 C 56.182,218.799 55.773,216.899 55.381,215.797 C 55.305,215.667 55.303,215.656 55.247,215.598 C 55.312,215.665 55.384,215.724 55.784,215.909 C 55.717,215.888 55.955,215.941 55.887,215.93 C 56.095,215.95 56.338,215.931 56.541,215.879 C 56.469,215.901 56.659,215.828 56.591,215.859 C 56.836,215.713 56.864,215.682 56.865,215.673 C 56.761,215.784 56.65,215.936 56.533,216.125 C 53.431,228.246 51.479,238.46 50.428,238.386 z "
   id="path3334" />
					</g>
				</g>
			</g>
		</g>
		<g
   id="g3336">
			<g
   id="g3338">
				
					<ellipse
   transform="matrix(-0.9976,-6.98e-2,6.98e-2,-0.9976,152.2894,433.8121)"
   cx="83.720001"
   cy="214.24699"
   rx="28.375999"
   ry="3.4430001"
   id="ellipse3340"
   sodipodi:cx="83.720001"
   sodipodi:cy="214.24699"
   sodipodi:rx="28.375999"
   sodipodi:ry="3.4430001"
   style="fill:#ffe2b7" />
				<path
   id="path3342"
   style="fill:#ffe2b7"
   d="" />
			</g>
			<g
   id="g3344">
				<g
   id="g3346">
					<g
   id="g3348">
						<path
   d="M 55.414,212.267 C 55.339,212.254 55.276,212.18 55.272,211.974 C 55.272,211.908 55.307,211.8 55.333,211.716 C 55.459,211.52 55.606,211.345 55.799,211.168 C 58.995,209.482 70.499,208.201 84.1,208.818 C 86.854,208.943 91.181,209.374 96.477,210.103 C 101.109,210.74 106.511,211.9 112.453,214.028 C 112.77,214.267 113.017,214.495 113.259,214.77 C 113.418,215.002 113.564,215.277 113.591,215.341 C 113.71,215.716 113.768,216.106 113.737,216.529 C 113.733,216.59 113.62,216.967 113.448,217.321 C 113.411,217.379 113.228,217.629 113.182,217.681 C 112.757,218.068 112.515,218.37 112.212,218.401 C 97.81,219.868 82.36,219.131 71.1,217.422 C 63.425,216.257 57.776,214.351 55.82,213.187 C 55.639,213.016 55.51,212.86 55.425,212.719 C 55.391,212.639 55.363,212.557 55.349,212.487 C 55.351,212.331 55.381,212.268 55.414,212.267 C 55.446,212.266 55.481,212.327 55.527,212.407 C 55.568,212.464 55.606,212.503 55.646,212.539 C 55.749,212.62 55.89,212.715 56.062,212.814 C 58.09,213.44 63.718,214.83 71.364,215.547 C 82.553,216.598 97.803,216.697 110.595,215.357 C 110.658,215.351 110.678,215.307 110.531,215.455 C 110.575,215.401 110.473,215.541 110.508,215.482 C 110.381,215.723 110.322,215.865 110.318,215.925 C 110.295,216.227 110.324,216.497 110.415,216.755 C 110.387,216.692 110.467,216.846 110.553,216.962 C 110.552,216.961 110.526,216.943 110.549,216.962 C 105.692,215.454 100.519,214.462 95.942,213.918 C 90.768,213.303 86.506,212.931 83.822,212.809 C 70.498,212.204 59.377,212.188 56.276,212.064 C 56.082,212.106 55.927,212.142 55.837,212.138 C 55.758,212.179 55.714,212.183 55.655,212.213 C 55.573,212.233 55.488,212.28 55.414,212.267 z "
   id="path3350" />
					</g>
				</g>
			</g>
		</g>
		<g
   id="g3352">
			<g
   id="g3354">
				<defs
   id="defs3356">
					
						<ellipse
   id="XMLID_3_"
   transform="matrix(-0.9976,-6.97e-2,6.97e-2,-0.9976,203.5423,492.4789)"
   cx="110.368"
   cy="242.686"
   rx="3.711"
   ry="25.357"
   sodipodi:cx="110.368"
   sodipodi:cy="242.686"
   sodipodi:rx="3.711"
   sodipodi:ry="25.357" />
				</defs>
				<clipPath
   id="XMLID_8_">
					<use
   xlink:href="#XMLID_3_"
   id="use3360"
   x="0"
   y="0"
   width="309.85001"
   height="398.659" />
				</clipPath>
				<g
   clip-path="url(#XMLID_8_)"
   id="g3362">
					<rect
   x="106.265"
   y="217.38901"
   width="8.2069998"
   height="4.2160001"
   id="rect3364"
   style="fill:#ffe2b7" />
					<rect
   x="106.265"
   y="221.606"
   width="8.2069998"
   height="4.2160001"
   id="rect3366"
   style="fill:#ffdfb1" />
					<rect
   x="106.265"
   y="225.82201"
   width="8.2069998"
   height="4.2160001"
   id="rect3368"
   style="fill:#ffddac" />
					<rect
   x="106.265"
   y="230.03799"
   width="8.2069998"
   height="4.2160001"
   id="rect3370"
   style="fill:#ffdba6" />
					<rect
   x="106.265"
   y="234.254"
   width="8.2069998"
   height="4.2160001"
   id="rect3372"
   style="fill:#ffd8a0" />
					<rect
   x="106.265"
   y="238.47"
   width="8.2069998"
   height="4.2160001"
   id="rect3374"
   style="fill:#ffd69a" />
					<rect
   x="106.265"
   y="242.686"
   width="8.2069998"
   height="4.2160001"
   id="rect3376"
   style="fill:#ffd495" />
					<rect
   x="106.265"
   y="246.90199"
   width="8.2069998"
   height="4.2160001"
   id="rect3378"
   style="fill:#ffd18f" />
					<rect
   x="106.265"
   y="251.118"
   width="8.2069998"
   height="4.2160001"
   id="rect3380"
   style="fill:#ffd089" />
					<rect
   x="106.265"
   y="255.33501"
   width="8.2069998"
   height="4.2160001"
   id="rect3382"
   style="fill:#fecd84" />
					<rect
   x="106.265"
   y="259.55099"
   width="8.2069998"
   height="4.2160001"
   id="rect3384"
   style="fill:#fecb7f" />
					<rect
   x="106.265"
   y="263.767"
   width="8.2069998"
   height="4.2160001"
   id="rect3386"
   style="fill:#fec979" />
				</g>
			</g>
			<g
   id="g3388">
				<g
   id="g3390">
					<g
   id="g3392">
						<path
   d="M 106.667,242.427 C 105.603,242.352 105.867,231.302 109.364,217.221 C 109.569,216.908 109.86,216.528 110.14,216.229 C 110.36,216.035 110.625,215.842 111.197,215.554 C 111.26,215.532 111.594,215.442 111.66,215.429 C 112.038,215.392 112.071,215.391 112.103,215.391 C 112.482,215.42 112.514,215.425 112.545,215.43 C 112.947,215.536 113.265,215.671 113.564,215.846 C 113.851,216.068 114.086,216.296 114.167,216.384 C 114.637,217.06 114.937,217.676 115.107,218.12 C 116.27,225.869 116.254,240.669 114.302,255.185 C 113.715,259.547 112.401,263.789 110.663,267.926 C 110.435,268.235 110.165,268.537 109.789,268.855 C 109.725,268.896 109.527,269.011 109.458,269.044 C 109.233,269.133 109,269.194 108.717,269.228 C 108.653,269.228 108.372,269.206 108.099,269.143 C 108.036,269.12 107.816,269.024 107.757,268.992 C 107.396,268.737 107.219,268.564 107.073,268.391 C 106.773,267.923 106.529,267.402 106.376,266.98 C 105.399,253.075 106.217,242.396 106.667,242.427 C 107.117,242.458 107.133,253.075 108.634,266.158 C 108.775,266.494 108.888,266.702 109.039,266.909 C 109.053,266.912 109.051,266.899 108.882,266.783 C 108.942,266.813 108.845,266.77 108.909,266.79 C 108.762,266.746 108.609,266.734 108.673,266.731 C 108.522,266.74 108.418,266.766 108.32,266.811 C 108.386,266.774 108.319,266.812 108.381,266.768 C 108.377,266.75 108.432,266.671 108.498,266.574 C 109.753,263.08 110.847,258.982 111.258,254.758 C 112.651,240.474 112.338,226.077 111.356,219.487 C 111.233,219.174 111.175,219.06 111.195,219.061 C 111.115,218.974 111.175,219.041 111.27,219.124 C 111.449,219.237 111.645,219.319 111.919,219.382 C 111.887,219.377 111.856,219.372 112.171,219.391 C 112.139,219.391 112.107,219.392 112.421,219.356 C 112.355,219.368 112.56,219.314 112.497,219.336 C 112.859,219.158 112.928,219.099 112.965,219.057 C 112.874,219.151 112.84,219.201 112.749,219.339 C 109.707,231.843 107.731,242.502 106.667,242.427 z "
   id="path3394" />
					</g>
				</g>
			</g>
		</g>
		<g
   id="g3396">
			<path
   clip-rule="evenodd"
   d="M 53.329,263.113 C 53.394,262.182 65.617,258.534 80.239,259.556 C 94.861,260.578 106.344,265.885 106.279,266.816 C 106.214,267.747 94.308,267.673 79.686,266.65 C 65.064,265.628 53.264,264.044 53.329,263.113 z "
   id="path3398"
   style="fill:#ffe2b7;fill-rule:evenodd" />
			<g
   id="g3400">
				<g
   id="g3402">
					<g
   id="g3404">
						<path
   d="M 53.329,263.113 C 53.291,263.103 53.256,263.077 53.226,263.037 C 53.223,262.962 53.219,262.876 53.245,262.815 C 53.403,262.446 53.946,261.985 54.76,261.486 C 58.36,259.74 67.389,257.797 78.27,257.447 C 78.854,257.473 79.404,257.501 79.989,257.535 C 84.456,257.958 93.322,259.66 103.293,263.012 C 104.581,263.608 105.891,264.297 107.382,265.368 C 107.517,265.519 107.674,265.731 107.843,266.04 C 107.85,266.058 107.857,266.076 107.864,266.093 C 107.99,266.573 107.991,266.589 107.993,266.604 C 107.943,267.275 107.939,267.29 107.934,267.304 C 107.671,267.861 107.662,267.875 107.37,268.2 C 107.336,268.229 107.082,268.415 107.043,268.438 C 82.87,268.248 54.881,264.597 53.303,263.248 C 53.292,263.215 53.291,263.196 53.285,263.162 C 53.298,263.132 53.312,263.115 53.329,263.113 C 53.346,263.111 53.364,263.124 53.384,263.151 C 53.393,263.146 53.407,263.158 53.412,263.154 C 55.23,263.087 83.063,265.483 105.217,265.517 C 105.255,265.493 105.073,265.628 105.107,265.598 C 104.835,265.896 104.845,265.883 104.601,266.411 C 104.605,266.397 104.608,266.382 104.566,267.025 C 104.564,267.009 104.562,266.994 104.685,267.442 C 104.677,267.424 104.67,267.407 104.662,267.389 C 104.774,267.612 104.868,267.741 104.935,267.813 C 104.195,267.354 103.086,266.81 101.896,266.298 C 92.39,263.389 83.967,261.926 79.709,261.523 C 79.194,261.49 78.645,261.46 78.129,261.435 C 67.728,261.677 59.002,262.488 55.27,262.89 C 54.411,262.983 53.864,263.14 53.589,263.113 C 53.525,263.131 53.488,263.12 53.455,263.096 C 53.41,263.118 53.367,263.123 53.329,263.113 z "
   id="path3406" />
					</g>
				</g>
			</g>
		</g>
	</g><g
     id="g3408">
		<g
   id="g3410">
			<g
   id="g3412">
				
					<ellipse
   transform="matrix(-8.72e-2,-0.9962,0.9962,-8.72e-2,40.6646,465.0569)"
   cx="233.40401"
   cy="213.897"
   rx="2.9100001"
   ry="24.799999"
   id="ellipse3414"
   sodipodi:cx="233.40401"
   sodipodi:cy="213.897"
   sodipodi:rx="2.9100001"
   sodipodi:ry="24.799999"
   style="fill:#ffe2b7" />
				<path
   id="path3416"
   style="fill:#ffe2b7"
   d="" />
			</g>
			<g
   id="g3418">
				<g
   id="g3420">
					<g
   id="g3422">
						<path
   d="M 233.15,210.998 C 233.055,209.915 244.036,208.372 258.678,209.526 C 258.776,209.583 259.016,209.741 259.267,209.943 C 259.481,210.158 259.708,210.453 259.904,210.81 C 259.914,210.834 259.925,210.858 259.935,210.882 C 260.062,211.306 260.067,211.331 260.072,211.356 C 260.108,211.798 260.108,211.823 260.107,211.848 C 260.044,212.316 259.919,212.699 259.897,212.748 C 259.555,213.311 259.349,213.545 259.276,213.618 C 258.464,214.218 257.813,214.554 257.235,214.8 C 248.08,216.966 228.146,218.908 211.061,218.403 C 210.275,218.247 209.436,218.025 208.575,217.672 C 208.401,217.571 208.217,217.445 207.919,217.182 C 207.881,217.137 207.726,216.934 207.695,216.885 C 207.583,216.668 207.573,216.644 207.564,216.619 C 207.483,216.345 207.477,216.32 207.475,216.295 C 207.452,216.011 207.455,215.985 207.488,215.702 C 207.501,215.65 207.587,215.393 207.699,215.171 C 207.845,214.963 207.999,214.79 208.073,214.72 C 208.743,214.244 209.327,213.957 209.872,213.739 C 222.925,211.286 233.111,210.552 233.15,210.998 C 233.189,211.444 223.164,212.99 210.766,215.951 C 210.347,216.143 210,216.335 209.816,216.463 C 209.745,216.537 209.768,216.521 209.803,216.485 C 209.872,216.362 209.923,216.208 209.912,216.261 C 209.944,216.028 209.94,216.053 209.921,215.819 C 209.919,215.794 209.932,215.868 209.861,215.643 C 209.872,215.667 209.882,215.691 209.791,215.522 C 209.825,215.57 209.743,215.46 209.783,215.502 C 209.658,215.385 209.66,215.388 209.681,215.401 C 210.184,215.576 210.769,215.7 211.426,215.799 C 227.967,215.511 247.4,213.113 255.739,211.1 C 256.124,210.934 256.405,210.792 256.447,210.789 C 256.519,210.716 256.445,210.793 256.214,211.184 C 256.235,211.134 256.145,211.415 256.106,211.777 C 256.106,211.752 256.107,211.727 256.144,212.118 C 256.139,212.094 256.134,212.069 256.252,212.444 C 256.242,212.42 256.231,212.396 256.221,212.372 C 256.352,212.63 256.507,212.833 256.642,212.961 C 256.721,213.017 256.774,213.046 256.677,212.989 C 244.174,212.312 233.245,212.081 233.15,210.998 z "
   id="path3424" />
					</g>
				</g>
			</g>
		</g>
		<g
   id="g3426">
			<path
   clip-rule="evenodd"
   d="M 259.925,211.552 C 261.819,211.386 264.462,223.907 265.827,239.52 C 267.192,255.133 266.764,267.922 264.87,268.088 C 262.976,268.254 257.969,252.941 258.973,240.122 C 258.042,224.478 258.031,211.718 259.925,211.552 z "
   id="path3428"
   style="fill:#ffe2b7;fill-rule:evenodd" />
			<g
   id="g3430">
				<g
   id="g3432">
					<g
   id="g3434">
						<path
   d="M 259.925,211.552 C 259.926,211.476 259.989,211.402 260.193,211.366 C 260.258,211.356 260.373,211.366 260.491,211.408 C 260.673,211.473 260.867,211.597 261.072,211.76 C 263.239,214.656 266.305,225.834 267.824,239.387 C 268.13,242.12 268.379,246.446 268.487,251.737 C 268.583,256.443 268.284,261.961 267.111,268.164 C 266.924,268.515 266.738,268.794 266.505,269.076 C 266.301,269.27 266.051,269.457 265.697,269.647 C 265.64,269.669 265.263,269.781 264.811,269.823 C 264.781,269.821 264.75,269.82 264.332,269.76 C 264.265,269.741 263.889,269.598 263.617,269.447 C 263.314,269.219 263.061,268.98 262.849,268.741 C 261.288,265.853 260.317,263.118 259.545,260.384 C 257.664,239.865 257.624,218.356 258.847,212.627 C 259.028,212.225 259.213,211.92 259.386,211.724 C 259.455,211.663 259.529,211.608 259.608,211.557 C 259.67,211.537 259.749,211.515 259.814,211.507 C 259.887,211.513 259.92,211.53 259.925,211.552 C 259.929,211.574 259.904,211.602 259.864,211.631 C 259.813,211.671 259.78,211.709 259.737,211.758 C 259.706,211.806 259.676,211.857 259.648,211.909 C 259.559,212.121 259.467,212.412 259.38,212.781 C 259.263,218.414 260.246,239.731 262.646,259.553 C 263.446,262.102 264.389,264.536 265.451,266.478 C 265.502,266.537 265.537,266.568 265.554,266.574 C 265.408,266.483 265.162,266.39 265.229,266.407 C 264.871,266.35 264.901,266.35 264.931,266.351 C 264.598,266.37 264.337,266.446 264.392,266.422 C 264.154,266.538 264.014,266.642 263.913,266.745 C 263.913,266.744 263.927,266.715 263.913,266.741 C 264.643,261.706 264.812,256.442 264.636,251.872 C 264.434,246.651 264.137,242.399 263.839,239.736 C 262.352,226.461 260.626,215.455 260.262,212.37 C 260.19,212.185 260.131,212.038 260.087,211.925 C 260.068,211.876 260.056,211.833 260.017,211.78 C 259.984,211.704 259.924,211.628 259.925,211.552 z "
   id="path3436" />
					</g>
				</g>
			</g>
		</g>
		<g
   id="g3438">
			<g
   id="g3440">
				<defs
   id="defs3442">
					
						<ellipse
   id="XMLID_5_"
   transform="matrix(-8.71e-2,-0.9962,0.9962,-8.71e-2,-10.8442,531.8229)"
   cx="238.25301"
   cy="270.88"
   rx="3.711"
   ry="25.356001"
   sodipodi:cx="238.25301"
   sodipodi:cy="270.88"
   sodipodi:rx="3.711"
   sodipodi:ry="25.356001" />
				</defs>
				<clipPath
   id="XMLID_9_">
					<use
   xlink:href="#XMLID_5_"
   id="use3446"
   x="0"
   y="0"
   width="309.85001"
   height="398.659" />
				</clipPath>
				<g
   clip-path="url(#XMLID_9_)"
   id="g3448">
					<rect
   x="212.992"
   y="266.573"
   width="50.522999"
   height="0.71799999"
   id="rect3450"
   style="fill:#ffe2b7" />
					<rect
   x="212.992"
   y="267.29099"
   width="50.522999"
   height="0.71799999"
   id="rect3452"
   style="fill:#ffdfb1" />
					<rect
   x="212.992"
   y="268.009"
   width="50.522999"
   height="0.71799999"
   id="rect3454"
   style="fill:#ffddac" />
					<rect
   x="212.992"
   y="268.72699"
   width="50.522999"
   height="0.71799999"
   id="rect3456"
   style="fill:#ffdba6" />
					<rect
   x="212.992"
   y="269.44501"
   width="50.522999"
   height="0.71799999"
   id="rect3458"
   style="fill:#ffd8a0" />
					<rect
   x="212.992"
   y="270.16199"
   width="50.522999"
   height="0.71799999"
   id="rect3460"
   style="fill:#ffd69a" />
					<rect
   x="212.992"
   y="270.88"
   width="50.522999"
   height="0.71799999"
   id="rect3462"
   style="fill:#ffd495" />
					<rect
   x="212.992"
   y="271.59799"
   width="50.522999"
   height="0.71799999"
   id="rect3464"
   style="fill:#ffd18f" />
					<rect
   x="212.992"
   y="272.31601"
   width="50.522999"
   height="0.71799999"
   id="rect3466"
   style="fill:#ffd089" />
					<rect
   x="212.992"
   y="273.03299"
   width="50.522999"
   height="0.71799999"
   id="rect3468"
   style="fill:#fecd84" />
					<rect
   x="212.992"
   y="273.75101"
   width="50.522999"
   height="0.71799999"
   id="rect3470"
   style="fill:#fecb7f" />
					<rect
   x="212.992"
   y="274.46899"
   width="50.522999"
   height="0.71799999"
   id="rect3472"
   style="fill:#fec979" />
				</g>
			</g>
			<g
   id="g3474">
				<g
   id="g3476">
					<g
   id="g3478">
						<path
   d="M 237.93,267.183 C 237.837,266.12 248.792,264.654 263.246,265.905 C 263.587,266.059 264.008,266.287 264.483,266.626 C 264.572,266.704 264.805,266.935 265.179,267.455 C 265.211,267.514 265.352,267.83 265.375,267.893 C 265.471,268.261 265.477,268.293 265.482,268.324 C 265.512,268.703 265.512,268.736 265.512,268.767 C 265.47,269.181 265.387,269.516 265.365,269.58 C 265.087,270.157 264.898,270.425 264.709,270.648 C 264.23,271.087 263.669,271.48 263.256,271.718 C 255.784,274.078 241.164,276.377 226.524,276.718 C 222.124,276.821 217.729,276.186 213.371,275.116 C 213.03,274.939 212.689,274.72 212.412,274.49 C 212.266,274.342 212.121,274.164 212.078,274.101 C 211.955,273.893 211.858,273.672 211.837,273.608 C 211.771,273.334 211.748,273.054 211.75,272.99 C 211.782,272.708 211.842,272.475 211.929,272.252 C 212.059,272.016 212.203,271.814 212.279,271.723 C 212.765,271.273 213.242,270.951 213.654,270.723 C 227.215,267.596 237.891,266.734 237.93,267.183 C 237.97,267.632 227.487,269.308 214.782,272.847 C 214.49,273.029 214.303,273.173 214.193,273.274 C 214.121,273.368 214.134,273.364 214.157,273.34 C 214.202,273.244 214.229,273.141 214.239,272.991 C 214.24,273.055 214.229,272.902 214.185,272.755 C 214.209,272.818 214.167,272.719 214.108,272.629 C 214.154,272.689 214.107,272.628 214.065,272.59 C 214.177,272.674 214.264,272.717 214.37,272.767 C 218.017,273.46 222.236,273.899 226.472,273.646 C 240.799,272.788 254.968,270.228 261.323,268.227 C 261.613,268.057 261.717,267.982 261.834,267.871 C 261.793,267.909 261.735,267.979 261.563,268.345 C 261.584,268.281 261.533,268.487 261.514,268.768 C 261.514,268.736 261.514,268.704 261.544,269.019 C 261.539,268.987 261.533,268.956 261.618,269.261 C 261.596,269.198 261.681,269.391 261.65,269.332 C 261.882,269.662 261.952,269.721 261.862,269.643 C 261.892,269.676 261.838,269.65 261.687,269.582 C 248.859,268.531 238.023,268.246 237.93,267.183 z "
   id="path3480" />
					</g>
				</g>
			</g>
		</g>
		<g
   id="g3482">
			<path
   clip-rule="evenodd"
   d="M 208.588,217.88 C 209.518,217.798 213.295,229.523 214.572,244.125 C 215.849,258.727 214.143,270.676 213.213,270.758 C 212.283,270.839 212.144,258.16 208.031,244.306 C 203.86,230.254 207.658,217.961 208.588,217.88 z "
   id="path3484"
   style="fill:#ffe2b7;fill-rule:evenodd" />
			<g
   id="g3486">
				<g
   id="g3488">
					<g
   id="g3490">
						<path
   d="M 208.588,217.88 C 208.592,217.841 208.611,217.803 208.681,217.777 C 208.705,217.767 208.729,217.757 208.785,217.766 C 208.86,217.76 208.975,217.8 209.113,217.886 C 210.942,219.49 214.599,230.316 216.554,243.841 C 216.594,244.332 216.634,244.822 216.673,245.312 C 216.947,250.672 216.784,260.23 214.995,271.316 C 214.894,271.49 214.745,271.705 214.249,272.173 C 214.233,272.183 214.218,272.193 214.203,272.202 C 213.721,272.419 213.706,272.423 213.692,272.427 C 212.987,272.479 212.973,272.477 212.959,272.475 C 212.289,272.247 212.275,272.239 211.881,271.934 C 211.851,271.902 211.634,271.632 211.504,271.413 C 209.002,254.713 204.792,235.942 205.782,225.323 C 206.137,221.519 207.509,219.04 208.118,218.134 C 208.244,217.995 208.353,217.908 208.442,217.866 C 208.474,217.854 208.495,217.851 208.516,217.848 C 208.563,217.851 208.583,217.863 208.588,217.88 C 208.592,217.897 208.582,217.917 208.568,217.937 C 208.556,217.955 208.544,217.972 208.544,217.98 C 208.513,218.047 208.463,218.155 208.401,218.298 C 208.15,219.274 207.146,221.79 207.117,225.487 C 207.038,235.745 211.94,254.141 214.59,269.839 C 214.507,269.693 214.344,269.492 214.375,269.523 C 214.009,269.233 214.023,269.241 213.381,269.029 C 213.395,269.031 213.409,269.032 212.734,269.089 C 212.749,269.085 212.763,269.08 212.311,269.289 C 212.326,269.279 212.341,269.268 212.355,269.259 C 211.967,269.612 211.91,269.698 211.891,269.736 C 213.007,260.032 212.984,250.811 212.692,245.661 C 212.651,245.17 212.61,244.68 212.568,244.19 C 210.671,231.08 208.55,220.36 208.596,218.261 C 208.598,218.191 208.597,218.121 208.579,218.048 C 208.601,218.042 208.593,218.018 208.583,217.993 C 208.595,217.96 208.583,217.919 208.588,217.88 z "
   id="path3492" />
					</g>
				</g>
			</g>
		</g>
	</g><g
     id="g3494">
		<g
   id="g3496">
			
				<ellipse
   transform="matrix(-0.7071,-0.7071,0.7071,-0.7071,97.1747,184.8582)"
   clip-rule="evenodd"
   cx="86.874001"
   cy="72.303001"
   rx="3.5610001"
   ry="100.155"
   id="ellipse3498"
   sodipodi:cx="86.874001"
   sodipodi:cy="72.303001"
   sodipodi:rx="3.5610001"
   sodipodi:ry="100.155"
   style="fill:#ffe2b7;fill-rule:evenodd" />
			<g
   id="g3500">
				<g
   id="g3502">
					<g
   id="g3504">
						<path
   d="M 84.356,69.785 C 82.989,68.418 113.965,35.723 160.867,0.004 C 160.893,-0.016 160.903,0.06 160.909,0.092 C 161.241,1.737 161.232,1.782 161.23,1.827 C 139.452,28.352 87.143,124.14 13.921,142.301 C -40.883,155.894 83.773,69.202 84.356,69.785 C 84.939,70.368 -24.384,177.54 18.111,143.503 C 75.056,97.891 134.336,23.581 154.234,1.582 C 154.235,1.538 154.245,1.491 154.565,3.05 C 154.571,3.082 154.545,2.939 154.523,2.962 C 118.824,40.763 85.723,71.152 84.356,69.785 z "
   id="path3506" />
					</g>
				</g>
			</g>
		</g>
	</g></g>
</svg>